<?xml version="1.0" encoding="utf-8"?>
<!-- Generator: Adobe Illustrator 21.0.0, SVG Export Plug-In . SVG Version: 6.00 Build 0)  -->
<svg version="1.1" id="Calque_1" xmlns="http://www.w3.org/2000/svg" xmlns:xlink="http://www.w3.org/1999/xlink" x="0px" y="0px"
	 viewBox="0 0 170.1 170.1" style="enable-background:new 0 0 170.1 170.1;" xml:space="preserve">
<style type="text/css">
	.st0{fill:none;stroke:#00a99d;stroke-width:10;stroke-linecap:round;stroke-linejoin:round;stroke-miterlimit:10;}
</style>
<g id="Calque_2">
	<path class="st0" d="M127.5,137.4h-104c-4.7,0-8.5-3.8-8.5-8.5V69.4c0-4.7,3.8-8.5,8.5-8.5h104c4.7,0,8.5,3.8,8.5,8.5v59.5
		C136.1,133.6,132.2,137.4,127.5,137.4z"/>
	<polyline class="st0" points="29.7,109.4 21.2,117.9 29.7,126.4 	"/>
	<path class="st0" d="M120.1,92.2H99.9c-3.1,0-5.7-2.6-5.7-5.7v-9.9c0-3.1,2.6-5.7,5.7-5.7h20.2c3.1,0,5.7,2.6,5.7,5.7v9.9
		C125.8,89.6,123.2,92.2,120.1,92.2z"/>
</g>
<g id="Calque_3">
	<path class="st0" d="M31.4,60.9"/>
	<path class="st0" d="M31.4,60.9v-18c0-4.7,3.8-8.5,8.5-8.5h104c4.7,0,8.5,3.8,8.5,8.5v59.5c0,4.7-3.8,8.5-8.5,8.5H136"/>
	<line class="st0" x1="147.4" y1="66.4" x2="135.5" y2="66.4"/>
	<line class="st0" x1="36" y1="49.4" x2="147.4" y2="49.4"/>
</g>
</svg>
