<?xml version="1.0" encoding="utf-8"?>
<!-- Generator: Adobe Illustrator 21.0.0, SVG Export Plug-In . SVG Version: 6.00 Build 0)  -->
<svg version="1.1" id="e_transparent" xmlns="http://www.w3.org/2000/svg" xmlns:xlink="http://www.w3.org/1999/xlink" x="0px"
	 y="0px" viewBox="0 0 179.9 179.9" style="enable-background:new 0 0 179.9 179.9;" xml:space="preserve">
<style type="text/css">
	.st0{fill:#FFFFFF;}
</style>
<path class="st0" d="M90.1,56.8c-12.7,0-24,6.8-30.3,16.8c2.2,2.2,4.9,4.8,7.7,7.7c4.1-8.3,12.6-13.9,22.5-14
	c9.8,0,18.3,5.6,22.5,13.9l9.2-5.3C115.7,64.5,103.8,56.8,90.1,56.8z"/>
<path class="st0" d="M90.6,5.9c-46.9,0-84.9,38-84.9,84.9s38,84.9,84.9,84.9s84.9-38,84.9-84.9S137.5,5.9,90.6,5.9z M139.8,96.7
	c-54.3,30.3-86.2,0-86.1-0.3C56,120,72.9,133.2,92,133.2c14.9,0,25.4-6,34.2-15.3l10,9.1c-10.9,12.2-24.2,20.4-44.8,20.4
	c-29.8,0-54.2-22.8-54.2-56.7C37.2,59.3,59.3,34,89.3,34c32.2,0,50.7,25.6,50.7,57.6C140,93.2,139.8,96.7,139.8,96.7z"/>
</svg>
