<svg xmlns="http://www.w3.org/2000/svg" xmlns:xlink="http://www.w3.org/1999/xlink" width="1099" height="797.68"><style><![CDATA[.B{stroke-width:2}.C{fill:#2f2e41}.D{stroke:#3f3d56}.E{stroke-miterlimit:10}.F{fill:none}.G{fill:#00a99d}.H{fill:#ffb9b9}.I{fill:#3f3d56}.J{fill:#9f616a}.K{fill:#d0cde1}.L{fill:#57b894}]]></style><g fill="#f2f2f2"><circle cx="471" cy="373" r="373"/><ellipse cx="148" cy="774" rx="148" ry="23.68"/><ellipse cx="870" cy="736.969" rx="229" ry="36.64"/></g><path d="M819.12 384.785s1.95 6.5-9.098 12.348-14.297 27.945-1.3 34.443 16.897 14.947 10.398 20.796-18.197 21.446-2.6 25.345 17.547 11.698 12.998 14.947 10.398-5.85 10.398-5.85 2.6 15.597 16.247 11.698 52-77.985 32.494-88.383-69.537-25.345-69.537-25.345z" class="C"/><use xlink:href="#B" class="H"/><use xlink:href="#B" opacity=".1"/><path d="M852.787 740.78l38.762 13.482 26.964 1.685-1.685-23.594-55.615-16.448-8.426 24.875z" class="H"/><path d="M902.503 735.723s0 23.594 3.37 23.594 48.874-5.056 62.356 0 33.706-13.482 23.594-23.594-26.606-25.28-36.897-21.9-52.424 11.797-52.424 11.797zm-123.87-21.91s-20.224 40.447-6.74 43.818 28.65-1.685 30.335-3.37 25.28-8.426 28.65-5.056 3.37-13.482 3.37-13.482z" fill="#575a89"/><use xlink:href="#C" class="C"/><use xlink:href="#C" opacity=".2"/><circle cx="856.157" cy="420.572" r="38.762" class="H"/><path d="M795.487 481.243l33.706-6.74s8.426 26.965 35.39 21.91 33.706-21.91 33.706-21.91 20.224 8.426 21.91 8.426 23.594 8.426 23.594 13.482-25.28 55.615-25.28 55.615l3.37 91.006-124.712-3.37 8.426-89.32z" class="G"/><path d="M776.95 525.06s-10.112 89.32-3.37 96.062 33.706 25.28 33.706 25.28v-20.224L793.8 600.9l13.482-58.985zm174.427-2.527l-5.9 95.22c0 3.37-15.168 15.168-20.224 15.168s-8.426-8.426-8.426-8.426l11.797-13.482-8.426-69.097z" class="H"/><path d="M935.366 651.458s75.838-42.132 77.524 0-38.762 58.985-38.762 58.985-104.488 31.332-108.702 19.88-12.64-29.99-5.9-31.676 15.168-5.056 18.538-1.685 45.503-25.28 45.503-25.28z" class="C"/><path d="M970.758 646.402s-15.168 6.74-20.224 11.797-26.965 13.482-26.965 13.482" stroke="#000" opacity=".2" class="B E F"/><path d="M805.6 484.613l-10.112-3.37s-37.077 38.762-25.28 48.874 18.538 13.482 21.9 16.853 20.224 5.056 20.224 5.056zm123.025 8.427l15.168 3.37s11.797 25.28 15.168 28.65-5.056 1.685-10.112 8.426-10.112 18.538-20.224 18.538-23.594-16.853-23.594-16.853z" class="G"/><path d="M798.857 666.625s-64.04-45.503-85.95-11.797 94.377 79.21 111.23 85.95 32.02 13.482 32.02 13.482 15.168-37.077 15.168-43.818-11.797-6.74-15.168-6.74-18.538-3.37-21.91-8.426-35.39-28.65-35.39-28.65z" class="C"/><path d="M763.466 654.828s16.853 13.482 32.02 16.853 20.224 11.797 20.224 11.797" stroke="#000" opacity=".2" class="B E F"/><path d="M787.232 591.462l1.346 71.356c.093 4.906 4.125 8.82 9.032 8.764l132.8-1.492c4.695-.053 8.547-3.73 8.818-8.418l4.03-69.864c.142-2.454-.735-4.86-2.422-6.646s-4.037-2.8-6.496-2.8H796.163c-2.398 0-4.696.964-6.376 2.676s-2.6 4.027-2.555 6.425z" fill="#575a89"/><g class="C"><path d="M858.228 371.88s2.16 7.2-10.08 13.68-15.84 30.957-1.44 38.156 18.718 16.558 11.52 23.038-20.158 23.758-2.88 28.077 19.438 12.96 14.4 16.558 11.52-6.48 11.52-6.48 2.88 17.278 17.998 12.96 30.203-82.84 13.35-103.064c-15.67-18.804-54.387-22.925-54.387-22.925z"/><path d="M853.63 364.47c.003-10.547 31.56-2.97 45.088 11.758 9.37 10.198 23.6 25.54 11.674 36.355s20.44 24.992 29.12 29.3 25.817 17.443 10.343 26.26-15.224 17.72-9.4 19.827-12.84-3.134-12.84-3.134 1.885 17.415-13.838 17.332-60.832-86.494-50.056-110.513c10.02-22.333-10.1-27.177-10.1-27.177z"/><path d="M860.465 362.158c-42.198-2.54-46.433 29.223-46.433 29.223.292 18.382 29.483 9.425 37.6 12.165l42.12-29.85c-9.8-6.893-21.322-10.89-33.277-11.537z"/></g><path d="M848.442 564.85S810.6 387.45 573.67 258.76" class="B D E F"/><path d="M583.43 254.89l.474 1.945-9.583 2.324 3.02 9.39-1.906.61-3.675-11.436 11.67-2.833z" class="I"/><path d="M68.473 746.11c0 22.47-13.356 30.314-29.834 30.314q-.573 0-1.143-.013a48.69 48.69 0 0 1-2.267-.104c-14.87-1.052-26.424-9.3-26.424-30.197 0-21.625 27.634-48.912 29.7-50.932l.004-.004.12-.116s29.834 28.583 29.834 51.052z" class="G"/><path d="M37.552 772.988l10.912-15.247-10.94 16.92-.03 1.75-2.267-.104 1.298-24.8-10.966-16.963 11 15.37.025.45.89-16.985-9.388-17.528 9.503 14.547.93-35.332v.116l-.154 27.767 9.347-11.008-9.385 13.4-.247 15.207 8.727-14.594-8.763 16.832-.138 8.454 12.67-20.313-12.717 23.263z" class="I"/><g class="C"><path d="M210.773 740.3l6.382-4.74s4.224 23.597-.49 27.132-22.39 9.428-22.39 16.498-40.068 16.498-41.246 5.892 3.535-16.498 3.535-16.498 18.855-18.855 21.212-22.39 8.25-10.606 8.25-10.606z"/><path d="M116.496 446.854l.483 2.934 1.143 7L136.53 578.84c-1.178 3.535-9.428 16.498 0 20.034.907.342 1.886 1.45 2.934 3.194 2.024 3.757 3.693 7.694 4.985 11.76 5.62 16.3 11.632 42.413 15.108 60.5 1.52 7.943 2.557 14.33 2.864 17.677a9.61 9.61 0 0 1 .035 2.333c-1.178 4.714 7.07 21.212 10.606 25.926s9.428 9.428 8.25 14.142 29.462 17.677 32.997 9.428 3.535-12.963 4.714-15.32 2.357-18.855-3.535-21.212-2.357-43.603-8.25-51.852c-1.968-2.746-4.973-12.044-8.12-23.227l-3.712-13.73-9.38-38.465 1.178-137.88-64.815-8.25-1.662 3.665-3.312 7.27zm-3.536 226.264s-9.428-9.428-14.142 0-9.428 45.96-17.677 54.2-18.855 49.495-7.07 51.852 24.748-3.535 25.926-10.606 25.926-43.603 25.926-47.138-16.498-16.498-16.498-16.498z"/><path d="M257.912 382.038L239.056 532.88c-3.535 12.963-22.39 62.458-28.283 70.708S167.17 679 162.456 682.546s-14.142 12.963-14.142 12.963-17.677 17.677-20.034 21.212-22.39-7.07-23.57-14.142 1.178-18.855 2.357-23.57-2.357-11.785 1.178-15.32 21.212-21.212 21.212-29.462 30.64-56.566 42.425-67.172 9.428-28.283 9.428-28.283v-71.886l-64.815-20.034s3.535-56.566 11.785-56.566 116.668-18.855 129.63-8.25z"/></g><g class="J"><circle cx="162.456" cy="146.346" r="38.889"/><path d="M175.42 176.986s4.714 17.677 10.606 22.39-15.32 24.748-15.32 24.748l-40.068 2.357-7.07-22.39s12.963-25.926 9.428-42.425 42.425 15.32 42.425 15.32z"/></g><path d="M191.918 197.02s-10.606 1.178-12.963 4.714-18.855 14.142-31.818 11.785-21.212-5.892-23.57-4.714-7.07 25.926-7.07 25.926l12.963 37.71-2.357 103.705-3.535 28.283s-7.07-9.428 21.212-3.535 64.815-4.714 76.6-5.892 31.818-4.714 32.997-11.785-3.535-32.997-3.535-32.997l-18.855-78.957-11.785-42.425z" class="G"/><path d="M180.77 191.7s9.968-5.287 13.504-.573 48.317 11.785 48.317 15.32 9.428 99 7.07 107.24 4.714 17.677 4.714 17.677l8.25 35.354s22.4 67.172 12.963 69.53-17.677 0-21.212 0-2.357-44.782-11.785-56.566-22.4-41.246-24.748-47.138-31.818-87.206-30.64-96.634-6.433-44.208-6.433-44.208zm-48.954 5.32s-9.428 0-10.606 2.357-12.963 17.677-17.677 21.212-21.212 18.855-21.212 22.4 34.175 29.462 34.175 29.462 14.142 69.53 7.07 93.098-17.677 80.135-12.963 83.67 15.32 4.714 15.32 0 7.07-55.388 12.963-65.994 23.57-77.778 16.498-96.634-23.57-89.563-23.57-89.563z" class="K"/><path d="M287.373 313.688s1.178 36.532-11.785 55.388-21.212 40.068-21.212 40.068-21.212-5.892-24.748-12.963-25.926-1.178-25.926-3.535 27.105-14.142 29.462-16.498 10.606-2.357 15.32-7.07 5.892-15.32 5.892-15.32l4.714-30.64z" class="J"/><path d="M189.24 122.368c2.992-.272 6.077-.57 8.72-1.997 5.925-3.195 7.496-12.294 2.986-17.29-1.244-1.27-2.634-2.4-4.143-3.33l-8.958-6.097c-3.962-2.697-8.017-5.437-12.638-6.71-4.18-1.15-8.594-1.032-12.92-.763-8.4.522-16.85 1.6-24.75 4.5s-15.268 7.75-20.052 14.673c-7.585 10.974-7.69 25.775-3.51 38.444s12.112 23.7 19.93 34.5l4.057-19.795c.36-1.763.83-3.695 2.295-4.74 3.645-2.593 8.103 2.73 12.576 2.697 2.874-.022 5.287-2.386 6.376-5.046s1.16-5.605 1.413-8.468c.534-6.064 2.653-14.502 8.396-17.847 5.35-3.116 14.206-2.196 20.22-2.742z" class="C"/><path d="M187.06 447.805s-3.98 115.127-6.337 118.663 0-119.025 0-119.025z" opacity=".1"/><path d="M233.164 206.448h9.428s40.068 54.21 35.354 57.745 0 12.963 0 12.963l9.428 17.677s11.785 10.606 8.25 12.963-8.25 11.785-8.25 11.785-23.57-3.535-30.64 10.606L241.45 310.9z" class="K"/><path d="M204.146 237.243l32.35-13.36 24.895 60.286-32.35 13.36z" class="C"/><ellipse cx="280.75" cy="304.458" rx="7" ry="6.431" transform="matrix(.924294 -.381681 .381681 .924294 -145.45144 79.04643)" class="G"/><path d="M209.595 300.725s-84.85 70.708-98.99 48.317 15.32-41.246 15.32-41.246 25.926 1.178 55.388-17.677l29.462-12.963s26.896-38.4 36.06-23.777-15.645 40.07-37.24 47.346z" class="J"/><path d="M95.284 238.266L82.32 242.98v35.354l-4.714 7.07s1.178 14.142 4.714 17.677 10.606 2.357 8.25 10.606c-1.417 5.378-1.816 10.974-1.178 16.498 0 0 21.212 27.105 22.39 23.57s17.677-47.138 20.034-47.138-23.57-68.35-23.57-68.35z" class="K"/><path d="M250.252 416.803s12.185-11.785 6.093-12.374-27.305-12.374-30.84-6.482 24.748 18.855 24.748 18.855z" class="C"/><ellipse cx="482" cy="183" rx="17" ry="9" class="L"/><g class="F B D"><g class="E"><path d="M547 213q-57.5-21.717-115 0v-47a199.04 199.04 0 0 1 115 0z"/><path d="M531 203.28q-41.5-15.674-83 0V169.36c27.064-8.167 55.936-8.167 83 0z"/></g><ellipse cx="488" cy="179" rx="17" ry="9"/></g><ellipse cx="543.2" cy="290.706" rx="17" ry="9" transform="matrix(.979801 -.199974 .199974 .979801 -97.66163 63.33821)" class="L"/><g class="F B D"><g class="E"><path d="M562.387 255.94q-60.68-9.78-112.677 22.997l-9.4-46.05a199.04 199.04 0 0 1 112.677-22.997z"/><path d="M544.766 249.617q-43.796-7.058-81.323 16.598l-6.784-33.237c24.884-13.414 53.173-19.188 81.323-16.598z"/></g><ellipse cx="548.279" cy="285.587" rx="17" ry="9" transform="matrix(.979801 -.199974 .199974 .979801 -96.53536 64.25047)"/></g><ellipse cx="539.675" cy="346.645" rx="9" ry="17" transform="matrix(.069419 -.997588 .997588 .069419 105.90247 809.79432)" class="L"/><g class="F B D"><g class="E"><path d="M551.935 329.925q-55.854-25.656-114.723-7.983l3.263-46.887a199.04 199.04 0 0 1 114.723 7.983z"/><path d="M536.65 319.118q-40.312-18.517-82.8-5.762l2.355-33.84c27.566-6.268 56.368-4.264 82.8 5.762z"/></g><ellipse cx="545.938" cy="343.071" rx="9" ry="17" transform="matrix(.069419 -.997588 .997588 .069419 115.2961 812.71667)"/><path d="M414.922 214.092s-73.496-10.055-125.982 20.704" class="E"/></g><path d="M290.708 224.46l1.91.604-2.984 9.4 9.594 2.29-.467 1.947-11.683-2.79 3.63-11.448z" class="I"/><defs ><path id="B" d="M842.675 447.537s6.74 23.594-5.056 25.28a46.05 46.05 0 0 0-20.224 8.426l21.91 28.65h40.447l25.28-25.28s-33.706-25.28-26.965-40.447-35.39 3.37-35.39 3.37z"/><path id="C" d="M795.487 658.2s-32.02 43.818-8.426 55.615 136.51 11.797 144.936 0 11.797-48.874 0-52.244-136.51-3.37-136.51-3.37z"/></defs></svg>