<svg id="Calque_1" data-name="Calque 1" xmlns="http://www.w3.org/2000/svg" viewBox="0 0 117.57 120.5"><defs><style>.cls-1{fill:#00a99d;}</style></defs><title>leaf</title><path class="cls-1" d="M161,31.89a4.18,4.18,0,0,0-3.91-3.56c-36-1.78-63,6.87-80.46,25.83-23.22,25.24-21.33,60.2-20.5,68-5.57,10.19-11.25,21-11.25,21a4.17,4.17,0,0,0,1.89,5,3.87,3.87,0,0,0,2,.47,4.12,4.12,0,0,0,3.31-1.66.48.48,0,0,0,.12-.35c.12-.12.12-.24.24-.24s3.44-6.4,3.56-6.52c1.89-3.43,4.14-7.7,6.51-12.08,26.78,4.86,56.17-3.32,75.6-21.45C151.68,93.62,166.73,70.4,161,31.89ZM82.83,59.73c13.16-14.34,33-22.16,58.9-23.22a312,312,0,0,0-36.62,27,88.58,88.58,0,0,0-.35-11.61,4.19,4.19,0,0,0-8.3,1.19c.59,4,.36,13.15.12,18a213.59,213.59,0,0,0-32.35,37.56C64.82,95.52,68.5,75.37,82.83,59.73Zm49.54,40.53C115.54,116,90.3,123.48,66.84,120.05A173.34,173.34,0,0,1,85.92,94.1c3.91-.48,19.07-2.14,30,.11a4.11,4.11,0,1,0,1.65-8c-7.46-1.54-16.35-1.43-23.1-1.07a290.4,290.4,0,0,1,25.47-22.87c3.8-.24,15.17-.71,22,0a4.17,4.17,0,1,0,.95-8.29,113.07,113.07,0,0,0-11.49-.48c9.36-6.63,17.3-11.61,22.16-14.45C156.42,70.4,143.86,89.59,132.37,100.26Z" transform="translate(-44.71 -28.1)"/></svg>