<svg version="1.1" id="e_transparent" xmlns="http://www.w3.org/2000/svg" x="0" y="0" viewBox="0 0 179.9 179.9" xml:space="preserve"><style>.st0{fill:#fff}</style><path class="st0" d="M90.1 56.8c-12.7 0-24 6.8-30.3 16.8 2.2 2.2 4.9 4.8 7.7 7.7 4.1-8.3 12.6-13.9 22.5-14 9.8 0 18.3 5.6 22.5 13.9l9.2-5.3c-6-11.4-17.9-19.1-31.6-19.1z"/><path class="st0" d="M90.6 5.9c-46.9 0-84.9 38-84.9 84.9s38 84.9 84.9 84.9 84.9-38 84.9-84.9-38-84.9-84.9-84.9zm49.2 90.8c-54.3 30.3-86.2 0-86.1-.3C56 120 72.9 133.2 92 133.2c14.9 0 25.4-6 34.2-15.3l10 9.1c-10.9 12.2-24.2 20.4-44.8 20.4-29.8 0-54.2-22.8-54.2-56.7C37.2 59.3 59.3 34 89.3 34c32.2 0 50.7 25.6 50.7 57.6 0 1.6-.2 5.1-.2 5.1z"/></svg>